<svg width="30" height="31" viewBox="0 0 30 31" fill="none" xmlns="http://www.w3.org/2000/svg">
<path d="M2.94687 8.87827C4.35729 6.49119 6.43792 4.58746 8.91334 3.39239C9.16704 3.26991 9.56064 3.37936 9.70542 3.79644C9.82841 4.15075 9.65689 4.65257 9.16304 4.91257C7.11874 5.98881 5.4001 7.61593 4.21242 9.62603C2.70318 12.1804 2.14928 15.1874 2.64932 18.1118C3.14936 21.0363 4.67089 23.6884 6.94308 25.5962C9.21528 27.5039 12.0907 28.5435 15.0576 28.5299C18.0244 28.5163 20.8902 27.4504 23.1448 25.5219C25.3994 23.5934 26.8966 20.9274 27.3698 17.9985C27.843 15.0696 27.2615 12.0678 25.729 9.5274C24.5229 7.52827 22.7894 5.91698 20.7353 4.85952C20.2391 4.60407 20.063 4.10383 20.1827 3.74841C20.3237 3.33002 20.7163 3.21697 20.9711 3.33712C23.4574 4.50944 25.5553 6.39402 26.9876 8.76807C28.7 11.6065 29.3496 14.9604 28.8209 18.2329C28.2922 21.5055 26.6194 24.4842 24.1003 26.6389C21.5812 28.7937 18.3792 29.9847 15.0643 29.9999C11.7494 30.015 8.53663 28.8535 5.99788 26.7219C3.45913 24.5903 1.7591 21.6271 1.2004 18.3596C0.6417 15.092 1.26058 11.7323 2.94687 8.87827Z" stroke="url(#paint0_linear_2055_3)" stroke-width="2"/>
<path d="M15 2V8V14" stroke="url(#paint1_linear_2055_3)" stroke-width="3.5" stroke-miterlimit="4.13357" stroke-linecap="round" stroke-linejoin="round"/>
<defs>
<linearGradient id="paint0_linear_2055_3" x1="24.713" y1="1.78497" x2="2.5" y2="34.5" gradientUnits="userSpaceOnUse">
<stop stop-color="#D5D5FF"/>
<stop offset="0.981715" stop-color="#FFC19E"/>
</linearGradient>
<linearGradient id="paint1_linear_2055_3" x1="18.5" y1="3" x2="6" y2="18.5" gradientUnits="userSpaceOnUse">
<stop stop-color="#D5D5FF"/>
<stop offset="1" stop-color="#FFC19E"/>
</linearGradient>
</defs>
</svg>
